<svg version="1.2" xmlns="http://www.w3.org/2000/svg" viewBox="0 0 55 55" width="55" height="55">
	<title>mysql-svg</title>
	<style>
		.s0 { fill: #ffffff } 
	</style>
	<path id="Layer" fill-rule="evenodd" class="s0" d="m52.5 9v37q0 0.3-0.1 0.5c-1.2 4.9-11.8 8.5-24.9 8.5-13.1 0-23.7-3.7-24.9-8.5q-0.1-0.3-0.1-0.5v-37q0-0.3 0.1-0.5c1.2-4.3 9.8-8.5 24.9-8.5 15.1 0 23.7 4.2 24.9 8.5q0.1 0.2 0.1 0.5zm-2 24.5q0-0.2 0-0.3-0.1-0.3 0-0.5v-7.4q-0.4 0.3-0.8 0.7c-3.8 2.8-11.3 5-22.2 5-10.9 0-18.5-2.2-22.2-5.1q-0.4-0.2-0.7-0.5-0.1-0.1-0.1-0.1v7.4q0.1 0.2 0 0.5 0 0.1 0 0.3 0 0.2 0.1 0.5 0 0.2 0.1 0.3 0.1 0.2 0.1 0.3 0.1 0.2 0.3 0.4 0.1 0.2 0.2 0.3 0.2 0.2 0.4 0.4 0.1 0.1 0.2 0.2 0.3 0.2 0.5 0.4 0.2 0.1 0.3 0.2 0.3 0.3 0.7 0.5 0.1 0 0.2 0.1 0.5 0.3 1 0.5 0 0 0.1 0.1 0.6 0.2 1.2 0.5 0 0 0 0c2.3 0.9 5.2 1.7 8.6 2.2q0 0 0 0 1 0.1 2.1 0.2 0.1 0 0.3 0.1 0.9 0.1 1.9 0.1 0.4 0.1 0.8 0.1 0.7 0 1.5 0.1 1.2 0 2.4 0 1.2 0 2.4 0 0.8-0.1 1.5-0.1 0.4 0 0.8-0.1 1 0 1.9-0.1 0.2 0 0.3-0.1 1.1-0.1 2.1-0.2 0 0 0 0c3.4-0.5 6.3-1.3 8.6-2.2q0 0 0 0 0.6-0.3 1.2-0.5 0.1-0.1 0.1-0.1 0.5-0.2 1-0.5 0.1-0.1 0.2-0.1 0.4-0.2 0.7-0.5 0.1-0.1 0.3-0.2 0.2-0.2 0.5-0.4 0.1-0.1 0.2-0.2 0.2-0.2 0.4-0.4 0.1-0.1 0.2-0.3 0.2-0.2 0.3-0.4 0-0.1 0.1-0.3 0.1-0.1 0.1-0.3 0.1-0.3 0.1-0.5zm-0.4-19.9q-0.1 0.1-0.2 0.2-0.5 0.4-1 0.7-0.1 0.1-0.2 0.1-0.4 0.3-0.9 0.6-0.2 0.1-0.4 0.2-0.6 0.2-1.2 0.5-0.1 0.1-0.2 0.1-0.7 0.3-1.4 0.6-0.3 0-0.5 0.1-0.6 0.2-1.3 0.4-0.2 0.1-0.4 0.2-0.9 0.2-1.9 0.4-0.1 0-0.2 0.1-0.9 0.1-1.8 0.3-0.3 0.1-0.6 0.1-0.8 0.2-1.7 0.3-0.3 0-0.5 0-1.1 0.2-2.3 0.3-0.3 0-0.6 0-0.9 0.1-1.9 0.1-0.4 0-0.8 0-1.2 0.1-2.6 0.1-1.4 0-2.6 0-0.4-0.1-0.8-0.1-1 0-1.9-0.1-0.3 0-0.6 0-1.2-0.1-2.3-0.3-0.3 0-0.5 0-0.9-0.1-1.7-0.3-0.3 0-0.6-0.1-0.9-0.2-1.8-0.3-0.1-0.1-0.2-0.1-1-0.2-1.9-0.4-0.2-0.1-0.4-0.2-0.7-0.2-1.3-0.4-0.2-0.1-0.5-0.1-0.7-0.3-1.4-0.6-0.1 0-0.2-0.1-0.6-0.3-1.2-0.5-0.2-0.1-0.4-0.2-0.5-0.3-0.9-0.6-0.1 0-0.2-0.1-0.5-0.3-1-0.7-0.1-0.1-0.2-0.2-0.2-0.1-0.4-0.3v7.4q0.1 0.2 0 0.5 0 0.1 0 0.3 0 0.2 0.1 0.5 0 0.2 0.1 0.3 0.1 0.2 0.1 0.3 0.1 0.2 0.3 0.4 0.1 0.2 0.2 0.3 0.2 0.2 0.4 0.4 0.1 0.1 0.2 0.2 0.3 0.2 0.5 0.4 0.2 0.1 0.3 0.2 0.3 0.3 0.7 0.5 0.1 0 0.2 0.1 0.5 0.3 1 0.5 0 0 0.1 0.1 0.6 0.2 1.2 0.5 0 0 0 0c2.3 0.9 5.2 1.7 8.6 2.2q0 0 0 0 1 0.1 2.1 0.2 0.1 0 0.3 0.1 0.9 0.1 1.9 0.1 0.4 0.1 0.8 0.1 0.7 0 1.5 0.1 1.2 0 2.4 0 1.2 0 2.4 0 0.8-0.1 1.5-0.1 0.4 0 0.8-0.1 1 0 1.9-0.1 0.2 0 0.3-0.1 1.1-0.1 2.1-0.2 0 0 0 0c3.4-0.5 6.3-1.3 8.6-2.2q0 0 0 0 0.6-0.3 1.2-0.5 0.1-0.1 0.1-0.1 0.5-0.2 1-0.5 0.1-0.1 0.2-0.1 0.4-0.2 0.7-0.5 0.1-0.1 0.3-0.2 0.2-0.2 0.5-0.4 0.1-0.1 0.2-0.2 0.2-0.2 0.4-0.4 0.1-0.1 0.2-0.3 0.2-0.2 0.3-0.4 0-0.1 0.1-0.3 0.1-0.1 0.1-0.3 0.1-0.3 0.1-0.5 0-0.2 0-0.3-0.1-0.3 0-0.5v-7.4q-0.2 0.2-0.4 0.3zm-45.6-4.1c0 3.5 9.4 7.5 23 7.5 13.6 0 23-4 23-7.5 0-3.5-9.4-7.5-23-7.5-13.6 0-23 4-23 7.5zm46 27.8q-0.4 0.3-0.8 0.7c-3.8 2.8-11.3 5-22.2 5-10.9 0-18.5-2.2-22.2-5.1q-0.4-0.2-0.7-0.5-0.1-0.1-0.1-0.1v8.4q0 0.1 0 0.1c0.6 3.5 10 7.2 23 7.2 13 0 22.4-3.7 23-7.2q0 0 0-0.1z"/>
</svg>