<svg version="1.2" xmlns="http://www.w3.org/2000/svg" viewBox="0 0 512 513" width="512" height="513">
	<title>PHP icone-svg</title>
	<style>
		.s0 { fill: #ffffff } 
	</style>
	<path id="Layer" fill-rule="evenodd" class="s0" d="m512 186.8v167c0 48.6-38.6 98.3-83.3 108.5-35.2 8.1-71.4-2.3-96.8-27.7-5.9-5.9-5.9-15.4 0-21.2l42.4-42.5c5.9-5.8 15.4-5.8 21.2 0 8.8 8.8 25.6 1.7 25.6-10.6v-24.2c0-22.1-15.8-40.7-37.6-44.4l-28.9-4.8-17.1 34.1c-24.5 49.1-36.6 101.2-36.6 159.4 0 8.3-6.5 15-14.8 15h-60.1c-8.3 0-15-6.7-15-15v-75h-60.2v75c0 8.3-6.5 15-14.8 15h-60c-8.3 0-15.1-6.7-15.1-15v-43c0-28.2-7.4-54-21.4-74.7-40.1-59.1-39.8-105.1-39.4-120.3 0-101.6 75.9-184 172.4-195.7-4.7 7.1-9.1 14.8-12.3 23.7-14.2 40.1-4.7 86.1 28.4 136.6l49.6 75.9c2.9 4.4 7.7 6.8 12.6 6.8 5.2 0 13.6-5 18.7-7.6 81.5-40.7 78.4-106.5 76.9-139.1-0.2-2.8-0.3-5.5-0.3-7.8 0-8.3-6.7-15-15-15-8.3 0-15 6.7-15 15 0 2.8 0.1 5.9 0.3 10.2 1.4 29.1 3.7 77.9-60.3 109.9l-42.4-64.7c-27.7-42.3-36.1-79.3-25.2-110.1 11.4-31.9 45.4-55.6 75.7-60.7 0-0.1 0-0.2-0.1-0.3 40.9-5.9 70.9 14.8 86.2 25.4l0.4 0.3h18.9c78.1 0 142.4 63.5 142.4 141.6zm-90.8-6.6c0-8.3-6.8-15-15.1-15-8.2 0-15 6.7-15 15 0 8.3 6.8 15 15 15 8.3 0 15.1-6.7 15.1-15z"/>
</svg>